:SAMPLES-PER-SECOND 30
:FULLY-SPECIFIED
:DEGREES
514
root  0.098997 34.3607 27.4531 2.81615 16.4379 -1.1427
LeftUpLeg  -13.7659 5.13238 5.26034
LeftLeg  10.8378 -4.26691 -0.536448
LeftFoot  9.19084 0.0534574 -0.651474
LeftToes  -21.9842 2.60077e-006 -1.42232e-007
Spine  2.33192 3.87863 -0.247836
Spine1  4.2997 8.12147 -0.634721
RightShoulder  0.0607356 5.84995 4.65761
RightArm  -18.3187 -1.86262 60.3561
RightForeArm  65.7761 70.827 30.6553
RightHand  -1.16958 7.52813 -17.2823
LeftShoulder1  0.0319293 1.27815 -10.2409
LeftArm  -21.2603 13.5813 -69.7985
LeftForeArm  30.7115 -15.4896 -2.79398
LeftHand  0.130057 3.5756 3.67076
HEad  -7.464 -25.6941 -1.34615
RightUpLeg  -8.60895 -10.1497 0.239182
RightLeg  13.7372 -1.88624 -0.333366
RightFoot  -0.75912 0.00639761 0.0844638
RightToes  -28.6582 -0.129251 -0.23753
515
root  0.0768127 34.3631 27.4903 2.83872 16.9212 -1.1572
LeftUpLeg  -13.7477 5.0188 5.28673
LeftLeg  10.6459 -4.6259 -0.565643
LeftFoot  9.29305 0.058432 -0.718938
LeftToes  -22.0992 2.60077e-006 -1.42232e-007
Spine  2.28576 3.82927 -0.256091
Spine1  4.21478 8.0143 -0.647015
RightShoulder  0.0608438 5.89428 4.71273
RightArm  -18.2591 -2.78009 60.6232
RightForeArm  65.6188 70.5708 30.1693
RightHand  -1.13077 7.35631 -17.0994
LeftShoulder1  0.0322936 1.24433 -10.2308
LeftArm  -20.922 13.8259 -69.7553
LeftForeArm  30.596 -15.5772 -2.81067
LeftHand  0.133384 3.57199 3.69207
HEad  -7.38912 -25.663 -1.01533
RightUpLeg  -8.46644 -10.0499 0.302824
RightLeg  13.5811 -2.4387 -0.424291
RightFoot  -0.789031 0.0059749 0.0910714
RightToes  -28.5079 -0.129657 -0.23789
516
root  0.0571804 34.3627 27.5246 2.84148 17.3937 -1.17369
LeftUpLeg  -13.7745 4.83953 5.31846
LeftLeg  10.5919 -4.90392 -0.594789
LeftFoot  9.33244 0.0627947 -0.769338
LeftToes  -22.1721 2.60077e-006 -1.42232e-007
Spine  2.26311 3.74078 -0.27595
Spine1  4.17669 7.8261 -0.6779
RightShoulder  0.0610285 5.86842 4.8634
RightArm  -16.9427 -4.1175 60.4322
RightForeArm  66.2942 70.4596 29.9595
RightHand  -1.1613 7.43252 -17.3819
LeftShoulder1  0.0326609 1.22162 -10.2667
LeftArm  -20.6839 14.0119 -69.6089
LeftForeArm  30.507 -15.616 -2.81808
LeftHand  0.135327 3.58685 3.62886
HEad  -7.44075 -25.6582 -0.687966
RightUpLeg  -8.38602 -9.98031 0.36243
RightLeg  13.5886 -2.95114 -0.513925
RightFoot  -0.878393 0.00530008 0.101194
RightToes  -28.446 -0.129983 -0.238069
517
root  0.0403312 34.3566 27.5535 2.82258 17.8106 -1.19294
LeftUpLeg  -13.8425 4.66943 5.35298
LeftLeg  10.6737 -5.14673 -0.63156
LeftFoot  9.28767 0.0661316 -0.807021
LeftToes  -22.2224 2.60077e-006 -1.42232e-007
Spine  2.24464 3.62371 -0.293252
Spine1  4.14919 7.57886 -0.701426
RightShoulder  0.0612502 5.82439 5.05227
RightArm  -14.8284 -5.62445 60.0274
RightForeArm  67.409 70.4427 29.9226
RightHand  -1.22411 7.59332 -17.9351
LeftShoulder1  0.0330251 1.18195 -10.3232
LeftArm  -20.587 14.1948 -69.4231
LeftForeArm  30.4804 -15.5756 -2.81044
LeftHand  0.137763 3.62693 3.6611
HEad  -7.35258 -25.4966 -0.478072
RightUpLeg  -8.34497 -10.0814 0.41632
RightLeg  13.7 -3.25715 -0.573775
RightFoot  -1.06916 0.0043141 0.115746
RightToes  -28.2358 -0.130207 -0.23803
518
root  0.0111648 34.3539 27.5803 2.78787 17.9625 -1.23126
LeftUpLeg  -13.8365 4.74494 5.43419
LeftLeg  10.7041 -5.3773 -0.662612
LeftFoot  9.2668 0.0692418 -0.844313
LeftToes  -22.3463 2.60077e-006 -1.42232e-007
Spine  2.2168 3.54352 -0.316551
Spine1  4.10411 7.40405 -0.730845
RightShoulder  0.0614815 5.7491 5.18911
RightArm  -12.4378 -6.96906 59.769
RightForeArm  68.6075 70.4704 29.9677
RightHand  -1.31968 7.98348 -18.3881
LeftShoulder1  0.03338 1.15214 -10.3755
LeftArm  -20.5704 14.3572 -69.1841
LeftForeArm  30.4602 -15.4765 -2.79164
LeftHand  0.136506 3.75476 3.53135
HEad  -7.01586 -25.179 -0.501317
RightUpLeg  -8.32614 -9.92846 0.515632
RightLeg  13.8067 -3.55291 -0.632704
RightFoot  -1.22712 0.0033023 0.130295
RightToes  -27.9865 -0.130305 -0.237731
519
root  -0.0139362 34.3543 27.6031 2.75041 17.9547 -1.25717
LeftUpLeg  -13.7575 4.76015 5.51434
LeftLeg  10.6537 -5.38824 -0.659139
LeftFoot  9.28311 0.0701052 -0.848383
LeftToes  -22.4281 2.60077e-006 -1.42232e-007
Spine  2.18428 3.4588 -0.352045
Spine1  4.04964 7.2213 -0.785437
RightShoulder  0.0616924 5.6355 5.19228
RightArm  -10.2695 -7.81335 59.9734
RightForeArm  69.4531 70.5892 30.1842
RightHand  -1.36314 8.22058 -18.4438
LeftShoulder1  0.0337193 1.07416 -10.3735
LeftArm  -20.683 14.5715 -68.9439
LeftForeArm  29.857 -15.4989 -2.79625
LeftHand  0.12717 4.19858 3.09318
HEad  -6.51091 -24.7217 -0.713301
RightUpLeg  -8.34469 -9.87846 0.58356
RightLeg  13.9673 -3.58125 -0.648141
RightFoot  -1.34449 0.00271439 0.137857
RightToes  -27.8795 -0.13027 -0.236903
520
root  -0.0386095 34.357 27.6175 2.71117 17.8387 -1.25451
LeftUpLeg  -13.6513 4.71074 5.58105
LeftLeg  10.5902 -5.2288 -0.633846
LeftFoot  9.31172 0.0691928 -0.825116
LeftToes  -22.5021 2.60077e-006 -1.42232e-007
Spine  2.17532 3.36352 -0.407269
Spine1  4.03771 7.01995 -0.882848
RightShoulder  0.0619312 5.43014 5.15689
RightArm  -8.16814 -7.92491 60.5902
RightForeArm  69.6988 70.7011 30.3942
RightHand  -1.35015 8.31246 -18.0643
LeftShoulder1  0.0340368 0.752451 -10.4273
LeftArm  -20.14 14.9188 -68.4295
LeftForeArm  28.0668 -16.158 -2.92249
LeftHand  0.105091 4.92624 2.06983
HEad  -6.09626 -24.0995 -0.991287
RightUpLeg  -8.3776 -9.89713 0.624949
RightLeg  14.1358 -3.4559 -0.635997
RightFoot  -1.48903 0.00223185 0.143375
RightToes  -27.5988 -0.130122 -0.23552
521
root  -0.0712525 34.3614 27.6224 2.66044 17.6593 -1.25251
LeftUpLeg  -13.5295 4.73541 5.65199
LeftLeg  10.5058 -5.0995 -0.610629
LeftFoot  9.36554 0.0688217 -0.809088
LeftToes  -22.5461 2.60077e-006 -1.42232e-007
Spine  2.20474 3.29751 -0.465017
Spine1  4.09646 6.87679 -0.985851
RightShoulder  0.0621168 5.27896 5.00815
RightArm  -6.34584 -7.47018 61.7062
RightForeArm  69.5084 70.6547 30.3073
RightHand  -1.31602 8.33643 -17.5549
LeftShoulder1  0.0343264 0.365341 -10.4764
LeftArm  -18.5055 15.0102 -67.7712
LeftForeArm  26.4964 -17.4541 -3.17225
LeftHand  0.067807 5.09962 1.15105
HEad  -5.80079 -23.3576 -1.29658
RightUpLeg  -8.29908 -9.64496 0.678996
RightLeg  14.0356 -3.53223 -0.643633
RightFoot  -1.54884 0.00179864 0.147716
RightToes  -27.3625 -0.129876 -0.233907
522
root  -0.106828 34.3723 27.619 2.61209 17.4608 -1.25083
LeftUpLeg  -13.3675 4.86015 5.72847
LeftLeg  10.2927 -5.04809 -0.585465
LeftFoot  9.51715 0.0700316 -0.815026
LeftToes  -22.7087 2.60077e-006 -1.42232e-007
Spine  2.26626 3.28723 -0.508141
Spine1  4.21883 6.84455 -1.06816
RightShoulder  0.0622284 5.27241 4.77113
RightArm  -4.9432 -6.73847 63.2441
RightForeArm  68.9784 70.3568 29.7569
RightHand  -1.25052 8.25043 -16.8519
LeftShoulder1  0.0345818 0.231562 -10.4636
LeftArm  -15.8498 14.5283 -67.2983
LeftForeArm  25.2459 -19.4296 -3.55963
LeftHand  0.0767727 4.58478 1.54535
HEad  -6.02202 -22.7833 -1.64244
RightUpLeg  -8.20709 -9.61801 0.743693
RightLeg  13.8597 -3.36422 -0.602336
RightFoot  -1.56316 0.00205785 0.140894
RightToes  -27.0689 -0.12955 -0.232392
523
root  -0.143034 34.3909 27.607 2.59766 17.3886 -1.24944
LeftUpLeg  -13.1325 4.82062 5.78486
LeftLeg  9.77068 -4.94079 -0.527507
LeftFoot  9.85923 0.0718777 -0.82681
LeftToes  -22.7767 2.60077e-006 -1.42232e-007
Spine  2.32005 3.31816 -0.526683
Spine1  4.33111 6.89841 -1.11293
RightShoulder  0.0622992 5.36842 4.50023
RightArm  -4.05202 -5.89269 65.137
RightForeArm  68.0185 69.5128 28.2938
RightHand  -1.23497 8.27745 -16.586
LeftShoulder1  0.0347968 0.245315 -10.5065
LeftArm  -12.7874 13.4814 -66.9164
LeftForeArm  23.9383 -22.549 -4.19184
LeftHand  0.0691181 4.22285 1.50217
HEad  -6.44451 -22.2315 -2.07486
RightUpLeg  -8.1217 -9.69045 0.793277
RightLeg  13.6209 -3.21475 -0.561717
RightFoot  -1.47157 0.0027279 0.127278
RightToes  -27.0981 -0.129159 -0.2313
524
root  -0.169892 34.3979 27.5931 2.56455 17.4803 -1.24858
LeftUpLeg  -13.0392 4.7586 5.81183
LeftLeg  9.51328 -4.96674 -0.507709
LeftFoot  10.0787 0.0748544 -0.850689
LeftToes  -22.8709 2.60077e-006 -1.42232e-007
Spine  2.37662 3.3699 -0.555314
Spine1  4.43637 6.98719 -1.13971
RightShoulder  0.0623499 5.48958 4.17768
RightArm  -3.62813 -5.06314 67.3137
RightForeArm  66.6625 68.2976 26.4099
RightHand  -1.16349 7.87407 -16.4286
LeftShoulder1  0.0349653 0.178281 -10.6917
LeftArm  -10.0383 12.2481 -66.234
LeftForeArm  21.9098 -28.542 -5.49714
LeftHand  -0.0386078 4.24506 -1.40933
HEad  -6.73006 -21.4202 -2.6277
RightUpLeg  -8.07034 -9.81107 0.821895
RightLeg  13.5223 -3.17249 -0.548691
RightFoot  -1.42708 0.00278659 0.122735
RightToes  -27.0938 -0.12872 -0.230519
525
root  -0.187927 34.3952 27.5819 2.51168 17.8207 -1.27099
LeftUpLeg  -13.0868 4.64398 5.82727
LeftLeg  9.50229 -5.18178 -0.528578
LeftFoot  10.1494 0.079883 -0.899547
LeftToes  -22.9329 2.60077e-006 -1.42232e-007
Spine  2.44349 3.4045 -0.599105
Spine1  4.54934 7.01176 -1.15177
RightShoulder  0.0623762 5.6587 3.81874
RightArm  -4.01249 -4.4038 69.4393
RightForeArm  65.4286 66.9811 24.6127
RightHand  -1.11335 7.68189 -16.1127
LeftShoulder1  0.035081 0.0931585 -10.8287
LeftArm  -8.33356 10.8519 -65.5175
LeftForeArm  17.6579 -36.9069 -7.60734
LeftHand  -0.169399 4.20012 -4.97887
HEad  -5.92119 -20.4986 -3.27924
RightUpLeg  -8.02269 -9.96168 0.862725
RightLeg  13.5304 -3.36152 -0.581877
RightFoot  -1.52802 0.00183439 0.133467
RightToes  -27.0406 -0.128249 -0.22975
526
root  -0.19649 34.3964 27.5849 2.43816 18.4332 -1.32644
LeftUpLeg  -13.1203 4.551 5.83883
LeftLeg  9.42027 -5.69164 -0.572088
LeftFoot  10.2321 0.0899692 -1.00489
LeftToes  -22.9802 2.60077e-006 -1.42232e-007
Spine  2.48421 3.45419 -0.66762
Spine1  4.60919 7.06258 -1.21536
RightShoulder  0.0624341 5.84388 3.61613
RightArm  -5.05107 -4.05727 70.993
RightForeArm  64.221 65.8664 23.2554
RightHand  -1.04905 7.45884 -15.6334
LeftShoulder1  0.0351377 0.258775 -10.8419
LeftArm  -7.10659 8.77 -65.0961
LeftForeArm  10.2843 -46.1707 -10.5885
LeftHand  -0.30842 5.6121 -6.64794
HEad  -3.83229 -19.7011 -3.97691
RightUpLeg  -7.83471 -10.0394 0.924593
RightLeg  13.3596 -3.85558 -0.655503
RightFoot  -1.59678 0.000520783 0.149387
RightToes  -26.7566 -0.127763 -0.229045
527
root  -0.190796 34.4076 27.609 2.32896 19.0931 -1.32055
LeftUpLeg  -12.9463 4.5102 5.77375
LeftLeg  9.08709 -6.30468 -0.596376
LeftFoot  10.4091 0.103812 -1.1405
LeftToes  -23.0872 2.60077e-006 -1.42232e-007
Spine  2.51346 3.56274 -0.751523
Spine1  4.65405 7.23699 -1.32337
RightShoulder  0.0624888 6.04597 3.46136
RightArm  -6.40955 -3.94662 71.7974
RightForeArm  63.0695 65.0174 22.308
RightHand  -0.96637 7.05651 -15.2208
LeftShoulder1  0.0351606 0.639617 -10.6866
LeftArm  -6.32228 5.49145 -65.2724
LeftForeArm  2.58404 -54.2405 -14.1796
LeftHand  -0.517145 8.03054 -7.72055
HEad  -1.48688 -19.4622 -4.60797
RightUpLeg  -7.56438 -10.1506 0.900231
RightLeg  13.2353 -4.35453 -0.730509
RightFoot  -1.68898 -0.000954755 0.167397
RightToes  -26.4382 -0.127279 -0.228454
528
root  -0.195759 34.4139 27.6181 2.20539 19.9917 -1.35897
LeftUpLeg  -12.9154 4.17198 5.75207
LeftLeg  8.89258 -6.84106 -0.623399
LeftFoot  10.5742 0.116847 -1.26262
LeftToes  -23.1336 2.60077e-006 -1.42232e-007
Spine  2.53605 3.6257 -0.810263
Spine1  4.68855 7.33842 -1.41308
RightShoulder  0.0625772 6.15735 3.34126
RightArm  -7.83496 -3.91542 71.9974
RightForeArm  62.1699 64.3133 21.5714
RightHand  -0.903032 6.74932 -14.8685
LeftShoulder1  0.0351802 1.10912 -10.3832
LeftArm  -6.25124 1.11405 -66.1667
LeftForeArm  -1.30425 -60.3415 -18.0486
LeftHand  -0.677781 9.33984 -8.64657
HEad  0.739683 -19.4847 -5.17634
RightUpLeg  -7.36559 -10.3441 0.925352
RightLeg  13.2224 -5.03411 -0.843141
RightFoot  -1.74665 -0.0027502 0.189944
RightToes  -26.3258 -0.126811 -0.228029
